<?xml version="1.0" encoding="UTF-8"?>
<svg id="Layer_1" data-name="Layer 1" xmlns="http://www.w3.org/2000/svg" viewBox="0 0 680.63 162.43">
  <defs>
    <style>
      .cls-1 {
        fill: none;
      }

      .cls-1, .cls-2, .cls-3, .cls-4 {
        stroke-width: 0px;
      }

      .cls-2 {
        fill: #2c2c2c;
      }

      .cls-3 {
        fill: #dc3513;
      }

      .cls-4 {
        fill: #8a8c8e;
      }
    </style>
  </defs>
  <rect class="cls-1" width="680.63" height="162.43"/>
  <g>
    <path class="cls-4" d="M68.84,99.18l20.04-61.69-34.1,25.74c-2.04,1.54-3.56,3.68-4.36,6.11l-11.98,36.86c-3.36,10.35,2.3,18.74,12.65,18.74h55.16c2.72,0,5.36-.89,7.53-2.52l21.49-16.22h-61.69c-3.88,0-6.01-3.15-4.74-7.03Z"/>
    <path class="cls-3" d="M150.57,37.49h-61.69l46.39,68.71,20.04-61.69c1.26-3.88-.86-7.03-4.74-7.03ZM268.01,56.23h-14.06l12.65,18.74,4.57-14.06c.84-2.59-.58-4.69-3.16-4.69Z"/>
    <path class="cls-2" d="M187.7,89.03l10.66-32.8h-18.74l-12.18,37.48c-2.24,6.9,1.53,12.49,8.43,12.49h53.1l4.06-12.49h-42.17c-2.59,0-4-2.1-3.16-4.69ZM342.97,68.72c2.24-6.9-1.53-12.49-8.43-12.49h-53.1l-16.24,49.98h18.74l5.07-15.62h34.36c6.9,0,14.31-5.59,16.55-12.49l3.05-9.37ZM324.27,73.41h0c-.84,2.59-3.62,4.69-6.21,4.69h-24.99l3.05-9.37h24.99c2.59,0,4,2.1,3.16,4.69ZM247.86,74.97l-10.15,31.23h18.74l10.15-31.23h-18.74ZM408.88,56.23h-53.1l-16.24,49.98h18.74l5.07-15.62h34.36c6.9,0,14.31-5.59,16.55-12.49l3.05-9.37c2.24-6.9-1.53-12.49-8.43-12.49ZM398.61,73.41h0c-.84,2.59-3.62,4.69-6.21,4.69h-24.99l3.05-9.37h24.99c2.59,0,4,2.1,3.16,4.69ZM438.71,87.47h46.86l4.06-12.49h-46.86l.51-1.57c.84-2.59,3.62-4.69,6.21-4.69h42.17l4.06-12.49h-53.1c-6.9,0-14.31,5.59-16.55,12.49l-8.12,24.99c-2.24,6.9,1.53,12.49,8.43,12.49h53.1l4.06-12.49h-42.17c-2.59,0-4-2.1-3.16-4.69l.51-1.56ZM573.49,68.72h23.42l-12.18,37.48h18.74l12.18-37.48h23.42l4.06-12.49h-65.59l-4.06,12.49ZM557.56,56.23h-53.1l-16.24,49.98h18.74l8.1-24.93h0s19.94,24.93,19.94,24.93h18.8l-12.49-15.62h0s5.08,0,5.08,0c6.9,0,14.31-5.59,16.55-12.49l3.05-9.37c2.24-6.9-1.53-12.49-8.43-12.49ZM547.29,73.41h0c-.84,2.59-3.62,4.69-6.21,4.69h-24.99l3.05-9.37h24.99c2.59,0,4,2.1,3.16,4.69ZM652.48,55.76c-2.86,0-5.27,2.25-5.27,5.2s2.4,5.25,5.27,5.25,5.24-2.25,5.24-5.25-2.39-5.2-5.24-5.2ZM652.47,65.44c-2.44,0-4.49-1.92-4.49-4.48s2.05-4.43,4.49-4.43,4.47,1.92,4.47,4.43-2.04,4.48-4.47,4.48ZM654.72,59.8c0-1.05-.62-1.57-1.92-1.57h-2.13v5.49h.86v-2.36h.9l1.5,2.36h.92l-1.57-2.43c.82-.09,1.45-.5,1.45-1.5ZM652.42,60.67h-.89v-1.75h1.13c.58,0,1.21.11,1.21.84,0,.87-.69.91-1.45.91Z"/>
  </g>
</svg>